<?xml version="1.0" encoding="UTF-8"?>
<svg xmlns="http://www.w3.org/2000/svg" xmlns:xlink="http://www.w3.org/1999/xlink" width="338px" height="78px" viewBox="0 0 338 78" version="1.1">
<g id="surface1">
<path style=" stroke:none;fill-rule:nonzero;fill:rgb(92.941176%,86.27451%,6.666667%);fill-opacity:1;" d="M 101.597656 20.433594 C 104.320312 20.433594 106.214844 20.925781 107.28125 21.898438 C 108.351562 22.875 108.882812 24.25 108.882812 26.023438 C 108.882812 27.238281 108.667969 28.277344 108.246094 29.125 C 107.824219 29.976562 107.074219 30.640625 106.007812 31.121094 C 104.9375 31.597656 103.464844 31.835938 101.59375 31.835938 L 97.320312 31.835938 L 97.320312 35.488281 L 92.269531 35.488281 C 92.378906 32.800781 92.4375 30.292969 92.4375 27.953125 C 92.4375 25.609375 92.382812 23.101562 92.269531 20.414062 L 97.320312 20.414062 L 97.320312 20.433594 Z M 100.160156 27.828125 C 101.292969 27.828125 102.148438 27.785156 102.714844 27.695312 C 103.285156 27.605469 103.679688 27.441406 103.90625 27.207031 C 104.132812 26.96875 104.246094 26.625 104.246094 26.167969 C 104.246094 25.714844 104.140625 25.367188 103.925781 25.140625 C 103.714844 24.910156 103.324219 24.757812 102.757812 24.671875 C 102.1875 24.589844 101.320312 24.546875 100.160156 24.546875 L 97.324219 24.546875 L 97.324219 27.828125 Z M 100.160156 27.828125 "/>
<path style=" stroke:none;fill-rule:nonzero;fill:rgb(92.941176%,86.27451%,6.666667%);fill-opacity:1;" d="M 126.144531 28.492188 C 125.5625 29.324219 124.566406 29.925781 123.15625 30.296875 C 123.324219 30.519531 123.4375 30.691406 123.503906 30.816406 L 126.832031 35.492188 L 121.246094 35.492188 C 120.644531 34.355469 119.691406 32.75 118.390625 30.675781 L 115.375 30.675781 L 115.375 35.492188 L 110.53125 35.492188 C 110.636719 32.804688 110.695312 30.292969 110.695312 27.953125 C 110.695312 25.613281 110.640625 23.101562 110.53125 20.417969 L 115.375 20.417969 L 115.375 20.4375 L 119.582031 20.4375 C 122.34375 20.4375 124.277344 20.886719 125.371094 21.785156 C 126.46875 22.6875 127.015625 23.902344 127.015625 25.441406 C 127.015625 26.644531 126.726562 27.660156 126.144531 28.492188 Z M 115.375 24.421875 L 115.375 26.789062 L 118.144531 26.789062 C 119.308594 26.789062 120.1875 26.75 120.78125 26.675781 C 121.378906 26.601562 121.789062 26.476562 122.023438 26.3125 C 122.257812 26.148438 122.371094 25.90625 122.371094 25.585938 C 122.371094 25.28125 122.265625 25.046875 122.042969 24.882812 C 121.824219 24.714844 121.414062 24.597656 120.8125 24.53125 C 120.210938 24.460938 119.320312 24.425781 118.144531 24.425781 L 115.375 24.425781 Z M 115.375 24.421875 "/>
<path style=" stroke:none;fill-rule:nonzero;fill:rgb(92.941176%,86.27451%,6.666667%);fill-opacity:1;" d="M 130.875 33.628906 C 129.398438 32.25 128.660156 30.320312 128.660156 27.828125 C 128.660156 25.363281 129.394531 23.4375 130.867188 22.058594 C 132.335938 20.671875 134.648438 19.980469 137.796875 19.980469 C 140.960938 19.980469 143.277344 20.671875 144.746094 22.058594 C 146.21875 23.441406 146.957031 25.363281 146.957031 27.828125 C 146.957031 30.332031 146.222656 32.273438 144.761719 33.640625 C 143.296875 35.011719 140.976562 35.695312 137.800781 35.695312 C 134.65625 35.695312 132.355469 35.007812 130.875 33.628906 Z M 141.078125 30.578125 C 141.746094 29.992188 142.082031 29.074219 142.082031 27.828125 C 142.082031 26.609375 141.746094 25.703125 141.078125 25.109375 C 140.410156 24.511719 139.3125 24.214844 137.792969 24.214844 C 136.289062 24.214844 135.199219 24.511719 134.527344 25.109375 C 133.859375 25.703125 133.523438 26.609375 133.523438 27.828125 C 133.523438 29.058594 133.859375 29.972656 134.527344 30.570312 C 135.199219 31.164062 136.289062 31.460938 137.792969 31.460938 C 139.3125 31.460938 140.410156 31.167969 141.078125 30.578125 Z M 141.078125 30.578125 "/>
<path style=" stroke:none;fill-rule:nonzero;fill:rgb(92.941176%,86.27451%,6.666667%);fill-opacity:1;" d="M 157.054688 26.890625 L 165.824219 26.890625 L 165.824219 35.488281 L 162.210938 35.488281 L 161.78125 31.8125 C 161.371094 33.128906 160.636719 34.105469 159.585938 34.742188 C 158.53125 35.378906 157.246094 35.695312 155.726562 35.695312 C 154.34375 35.695312 153.117188 35.386719 152.039062 34.761719 C 150.964844 34.140625 150.121094 33.246094 149.511719 32.085938 C 148.902344 30.921875 148.597656 29.566406 148.597656 28.011719 C 148.597656 25.535156 149.328125 23.574219 150.792969 22.136719 C 152.257812 20.695312 154.539062 19.976562 157.628906 19.976562 C 159.394531 19.976562 160.953125 20.265625 162.300781 20.847656 C 163.652344 21.429688 164.796875 22.332031 165.742188 23.546875 C 165.125 23.867188 163.921875 24.503906 162.128906 25.457031 L 161.617188 25.746094 C 161.082031 25.207031 160.460938 24.804688 159.75 24.535156 C 159.039062 24.261719 158.285156 24.128906 157.488281 24.128906 C 156.175781 24.128906 155.195312 24.480469 154.550781 25.179688 C 153.910156 25.878906 153.585938 26.738281 153.585938 27.765625 C 153.585938 28.875 153.933594 29.769531 154.625 30.445312 C 155.316406 31.121094 156.375 31.460938 157.800781 31.460938 C 158.414062 31.460938 159.015625 31.371094 159.597656 31.191406 C 160.175781 31.011719 160.667969 30.699219 161.0625 30.257812 L 157.058594 30.257812 L 157.058594 26.890625 Z M 157.054688 26.890625 "/>
<path style=" stroke:none;fill-rule:nonzero;fill:rgb(92.941176%,86.27451%,6.666667%);fill-opacity:1;" d="M 183.078125 28.492188 C 182.496094 29.324219 181.5 29.925781 180.089844 30.296875 C 180.257812 30.519531 180.371094 30.691406 180.441406 30.816406 L 183.765625 35.492188 L 178.179688 35.492188 C 177.578125 34.355469 176.625 32.75 175.324219 30.675781 L 172.308594 30.675781 L 172.308594 35.492188 L 167.464844 35.492188 C 167.570312 32.804688 167.628906 30.292969 167.628906 27.953125 C 167.628906 25.613281 167.574219 23.101562 167.464844 20.417969 L 172.308594 20.417969 L 172.308594 20.4375 L 176.515625 20.4375 C 179.277344 20.4375 181.210938 20.886719 182.304688 21.785156 C 183.402344 22.6875 183.949219 23.902344 183.949219 25.441406 C 183.949219 26.644531 183.660156 27.660156 183.078125 28.492188 Z M 172.308594 24.421875 L 172.308594 26.789062 L 175.078125 26.789062 C 176.242188 26.789062 177.121094 26.75 177.714844 26.675781 C 178.3125 26.601562 178.722656 26.476562 178.957031 26.3125 C 179.191406 26.148438 179.304688 25.90625 179.304688 25.585938 C 179.304688 25.28125 179.199219 25.046875 178.976562 24.882812 C 178.757812 24.714844 178.347656 24.597656 177.746094 24.53125 C 177.144531 24.460938 176.253906 24.425781 175.078125 24.425781 L 172.308594 24.425781 Z M 172.308594 24.421875 "/>
<path style=" stroke:none;fill-rule:nonzero;fill:rgb(92.941176%,86.27451%,6.666667%);fill-opacity:1;" d="M 197.316406 35.488281 C 197.054688 34.699219 196.707031 33.710938 196.265625 32.519531 L 189.71875 32.519531 L 188.695312 35.488281 L 183.539062 35.488281 L 189.289062 20.410156 L 196.847656 20.410156 L 202.636719 35.488281 Z M 195.101562 29.277344 C 194.578125 27.824219 194.042969 26.371094 193.5 24.917969 L 193.007812 23.570312 C 192.527344 24.828125 191.820312 26.734375 190.890625 29.277344 Z M 195.101562 29.277344 "/>
<path style=" stroke:none;fill-rule:nonzero;fill:rgb(92.941176%,86.27451%,6.666667%);fill-opacity:1;" d="M 222.917969 20.414062 L 224.519531 35.492188 L 219.203125 35.492188 L 218.871094 24.734375 L 216.820312 35.492188 L 211.441406 35.492188 L 209.347656 24.816406 L 209.039062 35.492188 L 203.722656 35.492188 L 205.320312 20.414062 L 212.304688 20.414062 L 214.089844 30.238281 L 215.648438 20.414062 Z M 222.917969 20.414062 "/>
<path style=" stroke:none;fill-rule:nonzero;fill:rgb(92.941176%,86.27451%,6.666667%);fill-opacity:1;" d="M 239.117188 35.488281 C 238.859375 34.699219 238.507812 33.710938 238.070312 32.519531 L 231.519531 32.519531 L 230.496094 35.488281 L 225.339844 35.488281 L 231.09375 20.410156 L 238.648438 20.410156 L 244.4375 35.488281 Z M 236.902344 29.277344 C 236.382812 27.824219 235.847656 26.371094 235.304688 24.917969 L 234.808594 23.570312 C 234.328125 24.828125 233.625 26.734375 232.695312 29.277344 Z M 236.902344 29.277344 "/>
<path style=" stroke:none;fill-rule:nonzero;fill:rgb(92.941176%,86.27451%,6.666667%);fill-opacity:1;" d="M 257.785156 21.128906 C 259.277344 21.757812 260.320312 22.632812 260.917969 23.746094 C 261.511719 24.863281 261.808594 26.226562 261.808594 27.847656 C 261.808594 29.386719 261.46875 30.730469 260.78125 31.878906 C 260.097656 33.027344 259.070312 33.917969 257.703125 34.546875 C 256.332031 35.175781 254.652344 35.492188 252.652344 35.492188 C 251.433594 35.492188 250.195312 35.492188 248.9375 35.492188 C 247.675781 35.492188 246.402344 35.484375 245.117188 35.472656 C 245.226562 32.746094 245.28125 30.203125 245.28125 27.847656 C 245.28125 25.46875 245.226562 22.984375 245.117188 20.394531 C 246.742188 20.257812 248.9375 20.183594 251.6875 20.183594 C 254.261719 20.183594 256.292969 20.5 257.785156 21.128906 Z M 253.222656 31.355469 C 254.496094 31.355469 255.347656 31.042969 255.773438 30.421875 C 256.199219 29.796875 256.40625 28.941406 256.40625 27.847656 C 256.40625 26.796875 256.183594 25.945312 255.742188 25.292969 C 255.292969 24.644531 254.460938 24.316406 253.222656 24.316406 C 251.894531 24.316406 250.90625 24.359375 250.246094 24.441406 L 250.246094 31.355469 Z M 253.222656 31.355469 "/>
<path style=" stroke:none;fill-rule:nonzero;fill:rgb(92.941176%,86.27451%,6.666667%);fill-opacity:1;" d="M 265.667969 33.628906 C 264.191406 32.25 263.453125 30.320312 263.453125 27.828125 C 263.453125 25.363281 264.1875 23.4375 265.660156 22.058594 C 267.128906 20.671875 269.441406 19.980469 272.589844 19.980469 C 275.753906 19.980469 278.070312 20.671875 279.542969 22.058594 C 281.011719 23.441406 281.75 25.363281 281.75 27.828125 C 281.75 30.332031 281.015625 32.273438 279.554688 33.640625 C 278.089844 35.011719 275.769531 35.695312 272.59375 35.695312 C 269.449219 35.695312 267.148438 35.007812 265.667969 33.628906 Z M 275.871094 30.578125 C 276.539062 29.992188 276.875 29.074219 276.875 27.828125 C 276.875 26.609375 276.539062 25.703125 275.871094 25.109375 C 275.203125 24.511719 274.105469 24.214844 272.585938 24.214844 C 271.082031 24.214844 269.992188 24.511719 269.324219 25.109375 C 268.652344 25.703125 268.316406 26.609375 268.316406 27.828125 C 268.316406 29.058594 268.652344 29.972656 269.324219 30.570312 C 269.992188 31.164062 271.082031 31.460938 272.585938 31.460938 C 274.105469 31.460938 275.203125 31.167969 275.871094 30.578125 Z M 275.871094 30.578125 "/>
<path style=" stroke:none;fill-rule:nonzero;fill:rgb(92.941176%,86.27451%,6.666667%);fill-opacity:1;" d="M 299 28.492188 C 298.417969 29.324219 297.425781 29.925781 296.015625 30.296875 C 296.179688 30.519531 296.292969 30.691406 296.363281 30.816406 L 299.6875 35.492188 L 294.101562 35.492188 C 293.5 34.355469 292.550781 32.75 291.246094 30.675781 L 288.230469 30.675781 L 288.230469 35.492188 L 283.386719 35.492188 C 283.496094 32.804688 283.554688 30.292969 283.554688 27.953125 C 283.554688 25.613281 283.5 23.101562 283.386719 20.417969 L 288.230469 20.417969 L 288.230469 20.4375 L 292.4375 20.4375 C 295.203125 20.4375 297.132812 20.886719 298.230469 21.785156 C 299.328125 22.6875 299.875 23.902344 299.875 25.441406 C 299.875 26.644531 299.582031 27.660156 299 28.492188 Z M 288.230469 24.421875 L 288.230469 26.789062 L 291 26.789062 C 292.164062 26.789062 293.042969 26.75 293.640625 26.675781 C 294.234375 26.601562 294.648438 26.476562 294.882812 26.3125 C 295.113281 26.148438 295.230469 25.90625 295.230469 25.585938 C 295.230469 25.28125 295.121094 25.046875 294.902344 24.882812 C 294.679688 24.714844 294.273438 24.597656 293.671875 24.53125 C 293.066406 24.460938 292.179688 24.425781 291 24.425781 L 288.230469 24.425781 Z M 288.230469 24.421875 "/>
<path style=" stroke:none;fill-rule:nonzero;fill:rgb(92.941176%,86.27451%,6.666667%);fill-opacity:1;" d="M 306.363281 31.691406 C 311.566406 31.664062 315.332031 31.585938 317.671875 31.460938 C 317.578125 32.027344 317.519531 32.613281 317.5 33.214844 C 317.480469 33.820312 317.46875 34.578125 317.46875 35.492188 L 301.515625 35.492188 C 301.625 32.804688 301.679688 30.292969 301.679688 27.953125 C 301.679688 25.613281 301.628906 23.101562 301.515625 20.417969 L 317.46875 20.417969 L 317.46875 24.175781 L 306.359375 24.175781 L 306.359375 26.171875 C 307.015625 26.1875 307.984375 26.191406 309.277344 26.191406 C 311.449219 26.191406 313.703125 26.152344 316.03125 26.070312 L 316.03125 29.640625 C 313.703125 29.558594 311.449219 29.519531 309.277344 29.519531 C 307.988281 29.519531 307.015625 29.523438 306.359375 29.539062 L 306.359375 31.691406 Z M 306.363281 31.691406 "/>
<path style=" stroke:none;fill-rule:nonzero;fill:rgb(92.941176%,86.27451%,6.666667%);fill-opacity:1;" d="M 320.476562 31.730469 C 320.785156 31.121094 321.082031 30.417969 321.371094 29.613281 C 322.34375 30.183594 323.472656 30.625 324.761719 30.945312 C 326.046875 31.261719 327.242188 31.421875 328.351562 31.421875 C 329.488281 31.421875 330.289062 31.320312 330.753906 31.121094 C 331.21875 30.917969 331.449219 30.703125 331.449219 30.464844 C 331.449219 29.621094 330.179688 29.199219 327.632812 29.199219 C 324.839844 29.199219 322.816406 28.90625 321.554688 28.316406 C 320.296875 27.730469 319.664062 26.777344 319.664062 25.460938 C 319.664062 23.59375 320.433594 22.214844 321.964844 21.328125 C 323.496094 20.441406 325.492188 20 327.9375 20 C 329.363281 20 330.824219 20.183594 332.324219 20.550781 C 333.824219 20.917969 335.175781 21.421875 336.378906 22.054688 C 335.984375 22.96875 335.566406 24.085938 335.128906 25.398438 C 335.046875 25.675781 334.976562 25.886719 334.921875 26.023438 C 334.222656 25.453125 333.167969 24.976562 331.757812 24.597656 C 330.347656 24.21875 329.105469 24.027344 328.023438 24.027344 C 326.71875 24.027344 325.847656 24.113281 325.394531 24.289062 C 324.9375 24.460938 324.71875 24.710938 324.71875 25.046875 C 324.71875 25.378906 325.027344 25.644531 325.648438 25.847656 C 326.273438 26.050781 327.171875 26.148438 328.351562 26.148438 C 331.25 26.148438 333.359375 26.484375 334.675781 27.152344 C 335.988281 27.824219 336.648438 28.855469 336.648438 30.238281 C 336.648438 32.175781 335.949219 33.570312 334.554688 34.421875 C 333.15625 35.273438 331.042969 35.695312 328.207031 35.695312 C 326.6875 35.695312 325.144531 35.527344 323.566406 35.1875 C 321.992188 34.847656 320.574219 34.351562 319.316406 33.703125 C 319.78125 32.996094 320.167969 32.339844 320.476562 31.730469 Z M 320.476562 31.730469 "/>
<path style=" stroke:none;fill-rule:nonzero;fill:rgb(92.941176%,86.27451%,6.666667%);fill-opacity:1;" d="M 211.050781 48.988281 L 138.722656 48.988281 L 138.722656 53.679688 L 211.050781 53.679688 Z M 211.050781 48.988281 "/>
<path style=" stroke:none;fill-rule:nonzero;fill:rgb(100%,100%,100%);fill-opacity:1;" d="M 104.941406 43.457031 C 106.433594 44.085938 107.476562 44.957031 108.074219 46.074219 C 108.667969 47.1875 108.964844 48.554688 108.964844 50.175781 C 108.964844 51.710938 108.625 53.054688 107.9375 54.207031 C 107.253906 55.355469 106.226562 56.246094 104.859375 56.875 C 103.488281 57.503906 101.808594 57.816406 99.808594 57.816406 C 98.59375 57.816406 97.355469 57.816406 96.09375 57.816406 C 94.832031 57.816406 93.558594 57.8125 92.273438 57.796875 C 92.382812 55.070312 92.4375 52.527344 92.4375 50.179688 C 92.4375 47.796875 92.382812 45.3125 92.273438 42.722656 C 93.898438 42.585938 96.09375 42.515625 98.84375 42.515625 C 101.417969 42.511719 103.449219 42.828125 104.941406 43.457031 Z M 100.382812 53.683594 C 101.65625 53.683594 102.503906 53.371094 102.933594 52.75 C 103.355469 52.125 103.566406 51.265625 103.566406 50.171875 C 103.566406 49.117188 103.34375 48.269531 102.902344 47.617188 C 102.453125 46.964844 101.621094 46.640625 100.382812 46.640625 C 99.054688 46.640625 98.0625 46.683594 97.40625 46.765625 L 97.40625 53.679688 L 100.382812 53.679688 Z M 100.382812 53.683594 "/>
<path style=" stroke:none;fill-rule:nonzero;fill:rgb(100%,100%,100%);fill-opacity:1;" d="M 112.824219 55.957031 C 111.347656 54.578125 110.609375 52.644531 110.609375 50.15625 C 110.609375 47.691406 111.34375 45.765625 112.816406 44.382812 C 114.289062 42.996094 116.597656 42.304688 119.746094 42.304688 C 122.910156 42.304688 125.226562 42.996094 126.699219 44.382812 C 128.167969 45.769531 128.90625 47.691406 128.90625 50.15625 C 128.90625 52.660156 128.171875 54.597656 126.710938 55.972656 C 125.246094 57.34375 122.925781 58.027344 119.75 58.027344 C 116.609375 58.023438 114.304688 57.335938 112.824219 55.957031 Z M 123.03125 52.90625 C 123.703125 52.316406 124.035156 51.398438 124.035156 50.15625 C 124.035156 48.9375 123.703125 48.03125 123.03125 47.433594 C 122.363281 46.839844 121.265625 46.542969 119.746094 46.542969 C 118.242188 46.542969 117.152344 46.839844 116.484375 47.433594 C 115.8125 48.03125 115.476562 48.9375 115.476562 50.15625 C 115.476562 51.386719 115.8125 52.300781 116.484375 52.894531 C 117.152344 53.492188 118.242188 53.789062 119.746094 53.789062 C 121.265625 53.789062 122.363281 53.492188 123.03125 52.90625 Z M 123.03125 52.90625 "/>
<path style=" stroke:none;fill-rule:nonzero;fill:rgb(100%,100%,100%);fill-opacity:1;" d="M 234.210938 57.816406 C 233.949219 57.023438 233.601562 56.035156 233.164062 54.84375 L 226.613281 54.84375 L 225.585938 57.816406 L 220.433594 57.816406 L 226.183594 42.738281 L 233.738281 42.738281 L 239.53125 57.816406 Z M 231.996094 51.605469 C 231.472656 50.152344 230.9375 48.699219 230.394531 47.242188 L 229.902344 45.890625 C 229.417969 47.152344 228.714844 49.058594 227.785156 51.601562 L 231.996094 51.601562 Z M 231.996094 51.605469 "/>
<path style=" stroke:none;fill-rule:nonzero;fill:rgb(100%,100%,100%);fill-opacity:1;" d="M 259.8125 42.742188 L 261.414062 57.816406 L 256.09375 57.816406 L 255.769531 47.0625 L 253.714844 57.816406 L 248.335938 57.816406 L 246.242188 47.144531 L 245.933594 57.816406 L 240.617188 57.816406 L 242.21875 42.742188 L 249.199219 42.742188 L 250.984375 52.5625 L 252.542969 42.742188 Z M 259.8125 42.742188 "/>
<path style=" stroke:none;fill-rule:nonzero;fill:rgb(100%,100%,100%);fill-opacity:1;" d="M 276.011719 57.816406 C 275.753906 57.023438 275.402344 56.035156 274.964844 54.84375 L 268.414062 54.84375 L 267.390625 57.816406 L 262.234375 57.816406 L 267.988281 42.738281 L 275.542969 42.738281 L 281.335938 57.816406 Z M 273.796875 51.605469 C 273.277344 50.152344 272.742188 48.699219 272.195312 47.242188 L 271.703125 45.890625 C 271.222656 47.152344 270.519531 49.058594 269.589844 51.601562 L 273.796875 51.601562 Z M 273.796875 51.605469 "/>
<path style=" stroke:none;fill-rule:nonzero;fill:rgb(100%,100%,100%);fill-opacity:1;" d="M 299.234375 42.761719 C 299.140625 45.101562 299.09375 47.605469 299.09375 50.277344 C 299.09375 52.964844 299.140625 55.476562 299.234375 57.816406 L 291.882812 57.816406 L 286.914062 46.476562 L 287.285156 57.816406 L 282.007812 57.816406 C 282.113281 55.128906 282.171875 52.613281 282.171875 50.277344 C 282.171875 47.953125 282.117188 45.449219 282.007812 42.761719 L 289.5625 42.761719 L 294.550781 54.410156 L 294.203125 42.761719 Z M 299.234375 42.761719 "/>
<path style=" stroke:none;fill-rule:nonzero;fill:rgb(100%,100%,100%);fill-opacity:1;" d="M 318.085938 42.742188 C 317.988281 45.082031 317.941406 47.59375 317.941406 50.277344 C 317.941406 52.964844 317.988281 55.476562 318.085938 57.816406 L 313.257812 57.816406 L 313.257812 52.167969 L 305.703125 52.167969 L 305.703125 57.816406 L 300.878906 57.816406 C 300.988281 55.128906 301.046875 52.613281 301.046875 50.277344 C 301.046875 47.9375 300.992188 45.425781 300.878906 42.742188 L 305.703125 42.742188 L 305.703125 48.390625 L 313.257812 48.390625 L 313.257812 42.742188 Z M 318.085938 42.742188 "/>
<path style=" stroke:none;fill-rule:nonzero;fill:rgb(100%,100%,100%);fill-opacity:1;" d="M 332.679688 57.816406 C 332.421875 57.023438 332.074219 56.035156 331.632812 54.84375 L 325.085938 54.84375 L 324.058594 57.816406 L 318.90625 57.816406 L 324.65625 42.738281 L 332.210938 42.738281 L 338.003906 57.816406 Z M 330.460938 51.605469 C 329.941406 50.152344 329.40625 48.699219 328.863281 47.242188 L 328.371094 45.890625 C 327.890625 47.152344 327.183594 49.058594 326.253906 51.601562 L 330.460938 51.601562 Z M 330.460938 51.605469 "/>
<path style=" stroke:none;fill-rule:nonzero;fill:rgb(100%,100%,100%);fill-opacity:1;" d="M 331.972656 38.34375 L 324.746094 38.34375 L 324.746094 40.835938 L 331.972656 40.835938 Z M 331.972656 38.34375 "/>
<path style=" stroke:none;fill-rule:nonzero;fill:rgb(100%,100%,100%);fill-opacity:1;" d="M 38.554688 59.898438 L 34.589844 55.890625 L 51.296875 38.992188 L 34.589844 22.097656 L 38.554688 18.089844 L 59.222656 38.992188 Z M 38.554688 59.898438 "/>
<path style=" stroke:none;fill-rule:nonzero;fill:rgb(92.941176%,86.27451%,6.666667%);fill-opacity:1;" d="M 32.882812 54.191406 L 17.855469 38.992188 L 32.882812 23.792969 L 36.84375 27.800781 L 25.78125 38.992188 L 36.84375 50.1875 Z M 32.882812 54.191406 "/>
<path style=" stroke:none;fill-rule:nonzero;fill:rgb(92.941176%,86.27451%,6.666667%);fill-opacity:1;" d="M 65.824219 50.238281 L 61.886719 46.203125 L 69.109375 39 L 61.886719 31.796875 L 65.824219 27.761719 L 77.089844 39 Z M 65.824219 50.238281 "/>
<path style=" stroke:none;fill-rule:nonzero;fill:rgb(92.941176%,86.27451%,6.666667%);fill-opacity:1;" d="M 11.269531 50.234375 L 0 38.992188 L 11.269531 27.753906 L 15.203125 31.789062 L 7.984375 38.992188 L 15.203125 46.195312 Z M 11.269531 50.234375 "/>
<path style=" stroke:none;fill-rule:nonzero;fill:rgb(92.941176%,86.27451%,6.666667%);fill-opacity:1;" d="M 45.664062 15.375 L 38.546875 8.074219 L 31.425781 15.375 L 27.433594 11.394531 L 38.546875 0 L 49.65625 11.394531 Z M 45.664062 15.375 "/>
<path style=" stroke:none;fill-rule:nonzero;fill:rgb(92.941176%,86.27451%,6.666667%);fill-opacity:1;" d="M 60.28125 9.222656 L 49.65625 11.363281 L 50.753906 16.925781 L 58.433594 15.375 L 61.886719 18.875 L 60.339844 26.640625 L 65.832031 27.761719 L 67.976562 17.019531 Z M 60.28125 9.222656 "/>
<path style=" stroke:none;fill-rule:nonzero;fill:rgb(92.941176%,86.27451%,6.666667%);fill-opacity:1;" d="M 16.8125 9.222656 L 9.105469 17.011719 L 11.238281 27.753906 L 16.734375 26.640625 L 15.191406 18.875 L 18.652344 15.378906 L 26.332031 16.9375 L 27.433594 11.382812 Z M 16.8125 9.222656 "/>
<path style=" stroke:none;fill-rule:nonzero;fill:rgb(92.941176%,86.27451%,6.666667%);fill-opacity:1;" d="M 31.417969 62.625 L 38.539062 69.929688 L 45.660156 62.625 L 49.648438 66.605469 L 38.539062 78 L 27.425781 66.605469 Z M 31.417969 62.625 "/>
<path style=" stroke:none;fill-rule:nonzero;fill:rgb(92.941176%,86.27451%,6.666667%);fill-opacity:1;" d="M 26.332031 61.074219 L 18.648438 62.625 L 15.195312 59.125 L 16.742188 51.363281 L 11.25 50.238281 L 9.105469 60.980469 L 16.800781 68.78125 L 27.425781 66.632812 Z M 26.332031 61.074219 "/>
<path style=" stroke:none;fill-rule:nonzero;fill:rgb(92.941176%,86.27451%,6.666667%);fill-opacity:1;" d="M 67.980469 60.988281 L 65.847656 50.246094 L 60.351562 51.363281 L 61.894531 59.125 L 58.433594 62.621094 L 50.753906 61.0625 L 49.652344 66.621094 L 60.273438 68.78125 Z M 67.980469 60.988281 "/>
</g>
</svg>
